<?xml version="1.0" encoding="UTF-8" standalone="no" ?>
<!DOCTYPE svg PUBLIC "-//W3C//DTD SVG 1.1//EN" "http://www.w3.org/Graphics/SVG/1.1/DTD/svg11.dtd">
<svg xmlns="http://www.w3.org/2000/svg" xmlns:xlink="http://www.w3.org/1999/xlink" version="1.1" width="1063" height="61" viewBox="0 0 1063 61" xml:space="preserve">
<desc>Created with Fabric.js 3.6.3</desc>
<defs>
</defs>
<g transform="matrix(1 0 0 1 531.51 30.67)"  >
<path style="stroke: none; stroke-width: 1; stroke-dasharray: none; stroke-linecap: butt; stroke-dashoffset: 0; stroke-linejoin: miter; stroke-miterlimit: 4; fill: rgb(255,255,255); fill-rule: nonzero; opacity: 1;"  transform=" translate(-525.25, 17.38)" d="M 1.34 12.74 L 1.34 12.74 Q -0.77 12.74 -2.66 12.19 L -2.66 12.19 L -2.66 12.19 Q -4.54 11.65 -5.76 10.56 L -5.76 10.56 L -4.16 7.1 L -4.16 7.1 Q -2.18 8.83 1.09 8.83 L 1.09 8.83 L 1.09 8.83 Q 3.78 8.83 5.22 7.23 L 5.22 7.23 L 5.22 7.23 Q 6.66 5.63 6.66 2.5 L 6.66 2.5 L 6.66 -33.66 L 11.2 -33.66 L 11.2 2.5 L 11.2 2.5 Q 11.2 7.23 8.64 9.98 L 8.64 9.98 L 8.64 9.98 Q 6.08 12.74 1.34 12.74 L 1.34 12.74 Z M 8.96 -41.09 L 8.96 -41.09 Q 7.55 -41.09 6.59 -42.05 L 6.59 -42.05 L 6.59 -42.05 Q 5.63 -43.01 5.63 -44.35 L 5.63 -44.35 L 5.63 -44.35 Q 5.63 -45.63 6.59 -46.59 L 6.59 -46.59 L 6.59 -46.59 Q 7.55 -47.55 8.96 -47.55 L 8.96 -47.55 L 8.96 -47.55 Q 10.37 -47.55 11.33 -46.62 L 11.33 -46.62 L 11.33 -46.62 Q 12.29 -45.7 12.29 -44.42 L 12.29 -44.42 L 12.29 -44.42 Q 12.29 -43.01 11.33 -42.05 L 11.33 -42.05 L 11.33 -42.05 Q 10.37 -41.09 8.96 -41.09 L 8.96 -41.09 Z M 53.25 -16.83 L 53.18 -15.42 L 25.02 -15.42 L 25.02 -15.42 Q 25.41 -10.18 29.06 -6.94 L 29.06 -6.94 L 29.06 -6.94 Q 32.7 -3.71 38.27 -3.71 L 38.27 -3.71 L 38.27 -3.71 Q 41.41 -3.71 44.03 -4.83 L 44.03 -4.83 L 44.03 -4.83 Q 46.66 -5.95 48.58 -8.13 L 48.58 -8.13 L 51.14 -5.18 L 51.14 -5.18 Q 48.9 -2.5 45.54 -1.09 L 45.54 -1.09 L 45.54 -1.09 Q 42.18 0.32 38.14 0.32 L 38.14 0.32 L 38.14 0.32 Q 32.96 0.32 28.96 -1.89 L 28.96 -1.89 L 28.96 -1.89 Q 24.96 -4.1 22.72 -8 L 22.72 -8 L 22.72 -8 Q 20.48 -11.9 20.48 -16.83 L 20.48 -16.83 L 20.48 -16.83 Q 20.48 -21.76 22.62 -25.66 L 22.62 -25.66 L 22.62 -25.66 Q 24.77 -29.57 28.51 -31.74 L 28.51 -31.74 L 28.51 -31.74 Q 32.26 -33.92 36.93 -33.92 L 36.93 -33.92 L 36.93 -33.92 Q 41.6 -33.92 45.31 -31.74 L 45.31 -31.74 L 45.31 -31.74 Q 49.02 -29.57 51.14 -25.7 L 51.14 -25.7 L 51.14 -25.7 Q 53.25 -21.82 53.25 -16.83 L 53.25 -16.83 Z M 36.93 -30.02 L 36.93 -30.02 Q 32.06 -30.02 28.77 -26.91 L 28.77 -26.91 L 28.77 -26.91 Q 25.47 -23.81 25.02 -18.82 L 25.02 -18.82 L 48.9 -18.82 L 48.9 -18.82 Q 48.45 -23.81 45.15 -26.91 L 45.15 -26.91 L 45.15 -26.91 Q 41.86 -30.02 36.93 -30.02 L 36.93 -30.02 Z M 66.88 -27.07 L 66.88 -27.07 Q 68.48 -30.46 71.65 -32.19 L 71.65 -32.19 L 71.65 -32.19 Q 74.82 -33.92 79.49 -33.92 L 79.49 -33.92 L 79.49 -29.5 L 78.4 -29.57 L 78.4 -29.57 Q 73.09 -29.57 70.08 -26.3 L 70.08 -26.3 L 70.08 -26.3 Q 67.07 -23.04 67.07 -17.15 L 67.07 -17.15 L 67.07 0 L 62.53 0 L 62.53 -33.66 L 66.88 -33.66 L 66.88 -27.07 Z M 117.57 -16.83 L 117.5 -15.42 L 89.34 -15.42 L 89.34 -15.42 Q 89.73 -10.18 93.38 -6.94 L 93.38 -6.94 L 93.38 -6.94 Q 97.02 -3.71 102.59 -3.71 L 102.59 -3.71 L 102.59 -3.71 Q 105.73 -3.71 108.35 -4.83 L 108.35 -4.83 L 108.35 -4.83 Q 110.98 -5.95 112.9 -8.13 L 112.9 -8.13 L 115.46 -5.18 L 115.46 -5.18 Q 113.22 -2.5 109.86 -1.09 L 109.86 -1.09 L 109.86 -1.09 Q 106.5 0.32 102.46 0.32 L 102.46 0.32 L 102.46 0.32 Q 97.28 0.32 93.28 -1.89 L 93.28 -1.89 L 93.28 -1.89 Q 89.28 -4.1 87.04 -8 L 87.04 -8 L 87.04 -8 Q 84.8 -11.9 84.8 -16.83 L 84.8 -16.83 L 84.8 -16.83 Q 84.8 -21.76 86.94 -25.66 L 86.94 -25.66 L 86.94 -25.66 Q 89.09 -29.57 92.83 -31.74 L 92.83 -31.74 L 92.83 -31.74 Q 96.58 -33.92 101.25 -33.92 L 101.25 -33.92 L 101.25 -33.92 Q 105.92 -33.92 109.63 -31.74 L 109.63 -31.74 L 109.63 -31.74 Q 113.34 -29.57 115.46 -25.7 L 115.46 -25.7 L 115.46 -25.7 Q 117.57 -21.82 117.57 -16.83 L 117.57 -16.83 Z M 101.25 -30.02 L 101.25 -30.02 Q 96.38 -30.02 93.09 -26.91 L 93.09 -26.91 L 93.09 -26.91 Q 89.79 -23.81 89.34 -18.82 L 89.34 -18.82 L 113.22 -18.82 L 113.22 -18.82 Q 112.77 -23.81 109.47 -26.91 L 109.47 -26.91 L 109.47 -26.91 Q 106.18 -30.02 101.25 -30.02 L 101.25 -30.02 Z M 168.83 -33.92 L 168.83 -33.92 Q 175.17 -33.92 178.78 -30.27 L 178.78 -30.27 L 178.78 -30.27 Q 182.4 -26.62 182.4 -19.52 L 182.4 -19.52 L 182.4 0 L 177.86 0 L 177.86 -19.07 L 177.86 -19.07 Q 177.86 -24.32 175.33 -27.07 L 175.33 -27.07 L 175.33 -27.07 Q 172.8 -29.82 168.19 -29.82 L 168.19 -29.82 L 168.19 -29.82 Q 162.94 -29.82 159.94 -26.59 L 159.94 -26.59 L 159.94 -26.59 Q 156.93 -23.36 156.93 -17.66 L 156.93 -17.66 L 156.93 0 L 152.38 0 L 152.38 -19.07 L 152.38 -19.07 Q 152.38 -24.32 149.86 -27.07 L 149.86 -27.07 L 149.86 -27.07 Q 147.33 -29.82 142.66 -29.82 L 142.66 -29.82 L 142.66 -29.82 Q 137.47 -29.82 134.43 -26.59 L 134.43 -26.59 L 134.43 -26.59 Q 131.39 -23.36 131.39 -17.66 L 131.39 -17.66 L 131.39 0 L 126.85 0 L 126.85 -33.66 L 131.2 -33.66 L 131.2 -27.52 L 131.2 -27.52 Q 132.99 -30.59 136.19 -32.26 L 136.19 -32.26 L 136.19 -32.26 Q 139.39 -33.92 143.55 -33.92 L 143.55 -33.92 L 143.55 -33.92 Q 147.78 -33.92 150.88 -32.13 L 150.88 -32.13 L 150.88 -32.13 Q 153.98 -30.34 155.52 -26.82 L 155.52 -26.82 L 155.52 -26.82 Q 157.38 -30.14 160.86 -32.03 L 160.86 -32.03 L 160.86 -32.03 Q 164.35 -33.92 168.83 -33.92 L 168.83 -33.92 Z M 194.75 0 L 194.75 -33.66 L 199.3 -33.66 L 199.3 0 L 194.75 0 Z M 197.06 -41.02 L 197.06 -41.02 Q 195.65 -41.02 194.69 -41.98 L 194.69 -41.98 L 194.69 -41.98 Q 193.73 -42.94 193.73 -44.29 L 193.73 -44.29 L 193.73 -44.29 Q 193.73 -45.57 194.69 -46.53 L 194.69 -46.53 L 194.69 -46.53 Q 195.65 -47.49 197.06 -47.49 L 197.06 -47.49 L 197.06 -47.49 Q 198.46 -47.49 199.42 -46.56 L 199.42 -46.56 L 199.42 -46.56 Q 200.38 -45.63 200.38 -44.35 L 200.38 -44.35 L 200.38 -44.35 Q 200.38 -42.94 199.42 -41.98 L 199.42 -41.98 L 199.42 -41.98 Q 198.46 -41.02 197.06 -41.02 L 197.06 -41.02 Z M 223.74 -33.92 L 223.74 -33.92 Q 230.34 -33.92 233.86 -30.62 L 233.86 -30.62 L 233.86 -30.62 Q 237.38 -27.33 237.38 -20.86 L 237.38 -20.86 L 237.38 0 L 233.02 0 L 233.02 -5.25 L 233.02 -5.25 Q 231.49 -2.62 228.51 -1.15 L 228.51 -1.15 L 228.51 -1.15 Q 225.54 0.32 221.44 0.32 L 221.44 0.32 L 221.44 0.32 Q 215.81 0.32 212.48 -2.37 L 212.48 -2.37 L 212.48 -2.37 Q 209.15 -5.06 209.15 -9.47 L 209.15 -9.47 L 209.15 -9.47 Q 209.15 -13.76 212.26 -16.38 L 212.26 -16.38 L 212.26 -16.38 Q 215.36 -19.01 222.14 -19.01 L 222.14 -19.01 L 232.83 -19.01 L 232.83 -21.06 L 232.83 -21.06 Q 232.83 -25.41 230.4 -27.68 L 230.4 -27.68 L 230.4 -27.68 Q 227.97 -29.95 223.3 -29.95 L 223.3 -29.95 L 223.3 -29.95 Q 220.1 -29.95 217.15 -28.9 L 217.15 -28.9 L 217.15 -28.9 Q 214.21 -27.84 212.1 -25.98 L 212.1 -25.98 L 210.05 -29.38 L 210.05 -29.38 Q 212.61 -31.55 216.19 -32.74 L 216.19 -32.74 L 216.19 -32.74 Q 219.78 -33.92 223.74 -33.92 L 223.74 -33.92 Z M 222.14 -3.26 L 222.14 -3.26 Q 225.98 -3.26 228.74 -5.02 L 228.74 -5.02 L 228.74 -5.02 Q 231.49 -6.78 232.83 -10.11 L 232.83 -10.11 L 232.83 -15.62 L 222.27 -15.62 L 222.27 -15.62 Q 213.63 -15.62 213.63 -9.6 L 213.63 -9.6 L 213.63 -9.6 Q 213.63 -6.66 215.87 -4.96 L 215.87 -4.96 L 215.87 -4.96 Q 218.11 -3.26 222.14 -3.26 L 222.14 -3.26 Z M 266.88 -33.92 L 266.88 -33.92 Q 273.22 -33.92 276.96 -30.24 L 276.96 -30.24 L 276.96 -30.24 Q 280.7 -26.56 280.7 -19.52 L 280.7 -19.52 L 280.7 0 L 276.16 0 L 276.16 -19.07 L 276.16 -19.07 Q 276.16 -24.32 273.54 -27.07 L 273.54 -27.07 L 273.54 -27.07 Q 270.91 -29.82 266.05 -29.82 L 266.05 -29.82 L 266.05 -29.82 Q 260.61 -29.82 257.44 -26.59 L 257.44 -26.59 L 257.44 -26.59 Q 254.27 -23.36 254.27 -17.66 L 254.27 -17.66 L 254.27 0 L 249.73 0 L 249.73 -47.49 L 254.27 -47.49 L 254.27 -27.78 L 254.27 -27.78 Q 256.13 -30.72 259.39 -32.32 L 259.39 -32.32 L 259.39 -32.32 Q 262.66 -33.92 266.88 -33.92 L 266.88 -33.92 Z M 319.94 -45.18 L 319.94 -45.18 Q 328.51 -45.18 335.26 -41.63 L 335.26 -41.63 L 335.26 -41.63 Q 342.02 -38.08 345.79 -31.65 L 345.79 -31.65 L 345.79 -31.65 Q 349.57 -25.22 349.57 -16.96 L 349.57 -16.96 L 349.57 -16.96 Q 349.57 -8.83 346.75 -4.26 L 346.75 -4.26 L 346.75 -4.26 Q 343.94 0.32 338.94 0.32 L 338.94 0.32 L 338.94 0.32 Q 335.81 0.32 333.86 -1.54 L 333.86 -1.54 L 333.86 -1.54 Q 331.9 -3.39 331.71 -6.66 L 331.71 -6.66 L 331.71 -6.66 Q 329.79 -3.33 326.46 -1.5 L 326.46 -1.5 L 326.46 -1.5 Q 323.14 0.32 318.91 0.32 L 318.91 0.32 L 318.91 0.32 Q 314.43 0.32 310.82 -1.82 L 310.82 -1.82 L 310.82 -1.82 Q 307.2 -3.97 305.12 -7.74 L 305.12 -7.74 L 305.12 -7.74 Q 303.04 -11.52 303.04 -16.26 L 303.04 -16.26 L 303.04 -16.26 Q 303.04 -20.99 305.12 -24.74 L 305.12 -24.74 L 305.12 -24.74 Q 307.2 -28.48 310.82 -30.59 L 310.82 -30.59 L 310.82 -30.59 Q 314.43 -32.7 318.91 -32.7 L 318.91 -32.7 L 318.91 -32.7 Q 323.01 -32.7 326.3 -30.94 L 326.3 -30.94 L 326.3 -30.94 Q 329.6 -29.18 331.58 -25.98 L 331.58 -25.98 L 331.58 -32.45 L 335.74 -32.45 L 335.74 -8.19 L 335.74 -8.19 Q 335.74 -5.63 336.83 -4.48 L 336.83 -4.48 L 336.83 -4.48 Q 337.92 -3.33 339.71 -3.33 L 339.71 -3.33 L 339.71 -3.33 Q 342.72 -3.33 344.48 -6.91 L 344.48 -6.91 L 344.48 -6.91 Q 346.24 -10.5 346.24 -16.9 L 346.24 -16.9 L 346.24 -16.9 Q 346.24 -24.32 342.91 -29.98 L 342.91 -29.98 L 342.91 -29.98 Q 339.58 -35.65 333.6 -38.78 L 333.6 -38.78 L 333.6 -38.78 Q 327.62 -41.92 319.94 -41.92 L 319.94 -41.92 L 319.94 -41.92 Q 312.19 -41.92 306.21 -38.69 L 306.21 -38.69 L 306.21 -38.69 Q 300.22 -35.46 296.9 -29.6 L 296.9 -29.6 L 296.9 -29.6 Q 293.57 -23.74 293.57 -16.26 L 293.57 -16.26 L 293.57 -16.26 Q 293.57 -8.77 296.86 -2.88 L 296.86 -2.88 L 296.86 -2.88 Q 300.16 3.01 306.08 6.27 L 306.08 6.27 L 306.08 6.27 Q 312 9.54 319.68 9.54 L 319.68 9.54 L 319.68 9.54 Q 322.69 9.54 325.98 8.83 L 325.98 8.83 L 325.98 8.83 Q 329.28 8.13 331.97 6.72 L 331.97 6.72 L 333.06 9.86 L 333.06 9.86 Q 330.3 11.26 326.69 12.03 L 326.69 12.03 L 326.69 12.03 Q 323.07 12.8 319.68 12.8 L 319.68 12.8 L 319.68 12.8 Q 310.98 12.8 304.26 9.09 L 304.26 9.09 L 304.26 9.09 Q 297.54 5.38 293.79 -1.25 L 293.79 -1.25 L 293.79 -1.25 Q 290.05 -7.87 290.05 -16.26 L 290.05 -16.26 L 290.05 -16.26 Q 290.05 -24.7 293.82 -31.26 L 293.82 -31.26 L 293.82 -31.26 Q 297.6 -37.82 304.42 -41.5 L 304.42 -41.5 L 304.42 -41.5 Q 311.23 -45.18 319.94 -45.18 L 319.94 -45.18 Z M 319.49 -3.39 L 319.49 -3.39 Q 322.94 -3.39 325.7 -4.99 L 325.7 -4.99 L 325.7 -4.99 Q 328.45 -6.59 330.05 -9.5 L 330.05 -9.5 L 330.05 -9.5 Q 331.65 -12.42 331.65 -16.26 L 331.65 -16.26 L 331.65 -16.26 Q 331.65 -20.03 330.05 -22.94 L 330.05 -22.94 L 330.05 -22.94 Q 328.45 -25.86 325.7 -27.42 L 325.7 -27.42 L 325.7 -27.42 Q 322.94 -28.99 319.49 -28.99 L 319.49 -28.99 L 319.49 -28.99 Q 315.97 -28.99 313.18 -27.39 L 313.18 -27.39 L 313.18 -27.39 Q 310.4 -25.79 308.83 -22.91 L 308.83 -22.91 L 308.83 -22.91 Q 307.26 -20.03 307.26 -16.26 L 307.26 -16.26 L 307.26 -16.26 Q 307.26 -12.48 308.83 -9.57 L 308.83 -9.57 L 308.83 -9.57 Q 310.4 -6.66 313.18 -5.02 L 313.18 -5.02 L 313.18 -5.02 Q 315.97 -3.39 319.49 -3.39 L 319.49 -3.39 Z M 354.18 12.74 L 354.18 12.74 Q 352.06 12.74 350.18 12.19 L 350.18 12.19 L 350.18 12.19 Q 348.29 11.65 347.07 10.56 L 347.07 10.56 L 348.67 7.1 L 348.67 7.1 Q 350.66 8.83 353.92 8.83 L 353.92 8.83 L 353.92 8.83 Q 356.61 8.83 358.05 7.23 L 358.05 7.23 L 358.05 7.23 Q 359.49 5.63 359.49 2.5 L 359.49 2.5 L 359.49 -33.66 L 364.03 -33.66 L 364.03 2.5 L 364.03 2.5 Q 364.03 7.23 361.47 9.98 L 361.47 9.98 L 361.47 9.98 Q 358.91 12.74 354.18 12.74 L 354.18 12.74 Z M 361.79 -41.09 L 361.79 -41.09 Q 360.38 -41.09 359.42 -42.05 L 359.42 -42.05 L 359.42 -42.05 Q 358.46 -43.01 358.46 -44.35 L 358.46 -44.35 L 358.46 -44.35 Q 358.46 -45.63 359.42 -46.59 L 359.42 -46.59 L 359.42 -46.59 Q 360.38 -47.55 361.79 -47.55 L 361.79 -47.55 L 361.79 -47.55 Q 363.2 -47.55 364.16 -46.62 L 364.16 -46.62 L 364.16 -46.62 Q 365.12 -45.7 365.12 -44.42 L 365.12 -44.42 L 365.12 -44.42 Q 365.12 -43.01 364.16 -42.05 L 364.16 -42.05 L 364.16 -42.05 Q 363.2 -41.09 361.79 -41.09 L 361.79 -41.09 Z M 406.08 -16.83 L 406.02 -15.42 L 377.86 -15.42 L 377.86 -15.42 Q 378.24 -10.18 381.89 -6.94 L 381.89 -6.94 L 381.89 -6.94 Q 385.54 -3.71 391.1 -3.71 L 391.1 -3.71 L 391.1 -3.71 Q 394.24 -3.71 396.86 -4.83 L 396.86 -4.83 L 396.86 -4.83 Q 399.49 -5.95 401.41 -8.13 L 401.41 -8.13 L 403.97 -5.18 L 403.97 -5.18 Q 401.73 -2.5 398.37 -1.09 L 398.37 -1.09 L 398.37 -1.09 Q 395.01 0.32 390.98 0.32 L 390.98 0.32 L 390.98 0.32 Q 385.79 0.32 381.79 -1.89 L 381.79 -1.89 L 381.79 -1.89 Q 377.79 -4.1 375.55 -8 L 375.55 -8 L 375.55 -8 Q 373.31 -11.9 373.31 -16.83 L 373.31 -16.83 L 373.31 -16.83 Q 373.31 -21.76 375.46 -25.66 L 375.46 -25.66 L 375.46 -25.66 Q 377.6 -29.57 381.34 -31.74 L 381.34 -31.74 L 381.34 -31.74 Q 385.09 -33.92 389.76 -33.92 L 389.76 -33.92 L 389.76 -33.92 Q 394.43 -33.92 398.14 -31.74 L 398.14 -31.74 L 398.14 -31.74 Q 401.86 -29.57 403.97 -25.7 L 403.97 -25.7 L 403.97 -25.7 Q 406.08 -21.82 406.08 -16.83 L 406.08 -16.83 Z M 389.76 -30.02 L 389.76 -30.02 Q 384.9 -30.02 381.6 -26.91 L 381.6 -26.91 L 381.6 -26.91 Q 378.3 -23.81 377.86 -18.82 L 377.86 -18.82 L 401.73 -18.82 L 401.73 -18.82 Q 401.28 -23.81 397.98 -26.91 L 397.98 -26.91 L 397.98 -26.91 Q 394.69 -30.02 389.76 -30.02 L 389.76 -30.02 Z M 419.71 -27.07 L 419.71 -27.07 Q 421.31 -30.46 424.48 -32.19 L 424.48 -32.19 L 424.48 -32.19 Q 427.65 -33.92 432.32 -33.92 L 432.32 -33.92 L 432.32 -29.5 L 431.23 -29.57 L 431.23 -29.57 Q 425.92 -29.57 422.91 -26.3 L 422.91 -26.3 L 422.91 -26.3 Q 419.9 -23.04 419.9 -17.15 L 419.9 -17.15 L 419.9 0 L 415.36 0 L 415.36 -33.66 L 419.71 -33.66 L 419.71 -27.07 Z M 470.4 -16.83 L 470.34 -15.42 L 442.18 -15.42 L 442.18 -15.42 Q 442.56 -10.18 446.21 -6.94 L 446.21 -6.94 L 446.21 -6.94 Q 449.86 -3.71 455.42 -3.71 L 455.42 -3.71 L 455.42 -3.71 Q 458.56 -3.71 461.18 -4.83 L 461.18 -4.83 L 461.18 -4.83 Q 463.81 -5.95 465.73 -8.13 L 465.73 -8.13 L 468.29 -5.18 L 468.29 -5.18 Q 466.05 -2.5 462.69 -1.09 L 462.69 -1.09 L 462.69 -1.09 Q 459.33 0.32 455.3 0.32 L 455.3 0.32 L 455.3 0.32 Q 450.11 0.32 446.11 -1.89 L 446.11 -1.89 L 446.11 -1.89 Q 442.11 -4.1 439.87 -8 L 439.87 -8 L 439.87 -8 Q 437.63 -11.9 437.63 -16.83 L 437.63 -16.83 L 437.63 -16.83 Q 437.63 -21.76 439.78 -25.66 L 439.78 -25.66 L 439.78 -25.66 Q 441.92 -29.57 445.66 -31.74 L 445.66 -31.74 L 445.66 -31.74 Q 449.41 -33.92 454.08 -33.92 L 454.08 -33.92 L 454.08 -33.92 Q 458.75 -33.92 462.46 -31.74 L 462.46 -31.74 L 462.46 -31.74 Q 466.18 -29.57 468.29 -25.7 L 468.29 -25.7 L 468.29 -25.7 Q 470.4 -21.82 470.4 -16.83 L 470.4 -16.83 Z M 454.08 -30.02 L 454.08 -30.02 Q 449.22 -30.02 445.92 -26.91 L 445.92 -26.91 L 445.92 -26.91 Q 442.62 -23.81 442.18 -18.82 L 442.18 -18.82 L 466.05 -18.82 L 466.05 -18.82 Q 465.6 -23.81 462.3 -26.91 L 462.3 -26.91 L 462.3 -26.91 Q 459.01 -30.02 454.08 -30.02 L 454.08 -30.02 Z M 521.66 -33.92 L 521.66 -33.92 Q 528 -33.92 531.62 -30.27 L 531.62 -30.27 L 531.62 -30.27 Q 535.23 -26.62 535.23 -19.52 L 535.23 -19.52 L 535.23 0 L 530.69 0 L 530.69 -19.07 L 530.69 -19.07 Q 530.69 -24.32 528.16 -27.07 L 528.16 -27.07 L 528.16 -27.07 Q 525.63 -29.82 521.02 -29.82 L 521.02 -29.82 L 521.02 -29.82 Q 515.78 -29.82 512.77 -26.59 L 512.77 -26.59 L 512.77 -26.59 Q 509.76 -23.36 509.76 -17.66 L 509.76 -17.66 L 509.76 0 L 505.22 0 L 505.22 -19.07 L 505.22 -19.07 Q 505.22 -24.32 502.69 -27.07 L 502.69 -27.07 L 502.69 -27.07 Q 500.16 -29.82 495.49 -29.82 L 495.49 -29.82 L 495.49 -29.82 Q 490.3 -29.82 487.26 -26.59 L 487.26 -26.59 L 487.26 -26.59 Q 484.22 -23.36 484.22 -17.66 L 484.22 -17.66 L 484.22 0 L 479.68 0 L 479.68 -33.66 L 484.03 -33.66 L 484.03 -27.52 L 484.03 -27.52 Q 485.82 -30.59 489.02 -32.26 L 489.02 -32.26 L 489.02 -32.26 Q 492.22 -33.92 496.38 -33.92 L 496.38 -33.92 L 496.38 -33.92 Q 500.61 -33.92 503.71 -32.13 L 503.71 -32.13 L 503.71 -32.13 Q 506.82 -30.34 508.35 -26.82 L 508.35 -26.82 L 508.35 -26.82 Q 510.21 -30.14 513.7 -32.03 L 513.7 -32.03 L 513.7 -32.03 Q 517.18 -33.92 521.66 -33.92 L 521.66 -33.92 Z M 547.58 0 L 547.58 -33.66 L 552.13 -33.66 L 552.13 0 L 547.58 0 Z M 549.89 -41.02 L 549.89 -41.02 Q 548.48 -41.02 547.52 -41.98 L 547.52 -41.98 L 547.52 -41.98 Q 546.56 -42.94 546.56 -44.29 L 546.56 -44.29 L 546.56 -44.29 Q 546.56 -45.57 547.52 -46.53 L 547.52 -46.53 L 547.52 -46.53 Q 548.48 -47.49 549.89 -47.49 L 549.89 -47.49 L 549.89 -47.49 Q 551.3 -47.49 552.26 -46.56 L 552.26 -46.56 L 552.26 -46.56 Q 553.22 -45.63 553.22 -44.35 L 553.22 -44.35 L 553.22 -44.35 Q 553.22 -42.94 552.26 -41.98 L 552.26 -41.98 L 552.26 -41.98 Q 551.3 -41.02 549.89 -41.02 L 549.89 -41.02 Z M 576.58 -33.92 L 576.58 -33.92 Q 583.17 -33.92 586.69 -30.62 L 586.69 -30.62 L 586.69 -30.62 Q 590.21 -27.33 590.21 -20.86 L 590.21 -20.86 L 590.21 0 L 585.86 0 L 585.86 -5.25 L 585.86 -5.25 Q 584.32 -2.62 581.34 -1.15 L 581.34 -1.15 L 581.34 -1.15 Q 578.37 0.32 574.27 0.32 L 574.27 0.32 L 574.27 0.32 Q 568.64 0.32 565.31 -2.37 L 565.31 -2.37 L 565.31 -2.37 Q 561.98 -5.06 561.98 -9.47 L 561.98 -9.47 L 561.98 -9.47 Q 561.98 -13.76 565.09 -16.38 L 565.09 -16.38 L 565.09 -16.38 Q 568.19 -19.01 574.98 -19.01 L 574.98 -19.01 L 585.66 -19.01 L 585.66 -21.06 L 585.66 -21.06 Q 585.66 -25.41 583.23 -27.68 L 583.23 -27.68 L 583.23 -27.68 Q 580.8 -29.95 576.13 -29.95 L 576.13 -29.95 L 576.13 -29.95 Q 572.93 -29.95 569.98 -28.9 L 569.98 -28.9 L 569.98 -28.9 Q 567.04 -27.84 564.93 -25.98 L 564.93 -25.98 L 562.88 -29.38 L 562.88 -29.38 Q 565.44 -31.55 569.02 -32.74 L 569.02 -32.74 L 569.02 -32.74 Q 572.61 -33.92 576.58 -33.92 L 576.58 -33.92 Z M 574.98 -3.26 L 574.98 -3.26 Q 578.82 -3.26 581.57 -5.02 L 581.57 -5.02 L 581.57 -5.02 Q 584.32 -6.78 585.66 -10.11 L 585.66 -10.11 L 585.66 -15.62 L 575.1 -15.62 L 575.1 -15.62 Q 566.46 -15.62 566.46 -9.6 L 566.46 -9.6 L 566.46 -9.6 Q 566.46 -6.66 568.7 -4.96 L 568.7 -4.96 L 568.7 -4.96 Q 570.94 -3.26 574.98 -3.26 L 574.98 -3.26 Z M 619.71 -33.92 L 619.71 -33.92 Q 626.05 -33.92 629.79 -30.24 L 629.79 -30.24 L 629.79 -30.24 Q 633.54 -26.56 633.54 -19.52 L 633.54 -19.52 L 633.54 0 L 628.99 0 L 628.99 -19.07 L 628.99 -19.07 Q 628.99 -24.32 626.37 -27.07 L 626.37 -27.07 L 626.37 -27.07 Q 623.74 -29.82 618.88 -29.82 L 618.88 -29.82 L 618.88 -29.82 Q 613.44 -29.82 610.27 -26.59 L 610.27 -26.59 L 610.27 -26.59 Q 607.1 -23.36 607.1 -17.66 L 607.1 -17.66 L 607.1 0 L 602.56 0 L 602.56 -47.49 L 607.1 -47.49 L 607.1 -27.78 L 607.1 -27.78 Q 608.96 -30.72 612.22 -32.32 L 612.22 -32.32 L 612.22 -32.32 Q 615.49 -33.92 619.71 -33.92 L 619.71 -33.92 Z M 663.04 -33.92 L 663.04 -33.92 Q 669.38 -33.92 673.12 -30.24 L 673.12 -30.24 L 673.12 -30.24 Q 676.86 -26.56 676.86 -19.52 L 676.86 -19.52 L 676.86 0 L 672.32 0 L 672.32 -19.07 L 672.32 -19.07 Q 672.32 -24.32 669.7 -27.07 L 669.7 -27.07 L 669.7 -27.07 Q 667.07 -29.82 662.21 -29.82 L 662.21 -29.82 L 662.21 -29.82 Q 656.77 -29.82 653.6 -26.59 L 653.6 -26.59 L 653.6 -26.59 Q 650.43 -23.36 650.43 -17.66 L 650.43 -17.66 L 650.43 0 L 645.89 0 L 645.89 -47.49 L 650.43 -47.49 L 650.43 -27.78 L 650.43 -27.78 Q 652.29 -30.72 655.55 -32.32 L 655.55 -32.32 L 655.55 -32.32 Q 658.82 -33.92 663.04 -33.92 L 663.04 -33.92 Z M 702.98 0.32 L 702.98 0.32 Q 698.11 0.32 694.21 -1.89 L 694.21 -1.89 L 694.21 -1.89 Q 690.3 -4.1 688.06 -8 L 688.06 -8 L 688.06 -8 Q 685.82 -11.9 685.82 -16.83 L 685.82 -16.83 L 685.82 -16.83 Q 685.82 -21.76 688.06 -25.66 L 688.06 -25.66 L 688.06 -25.66 Q 690.3 -29.57 694.21 -31.74 L 694.21 -31.74 L 694.21 -31.74 Q 698.11 -33.92 702.98 -33.92 L 702.98 -33.92 L 702.98 -33.92 Q 707.84 -33.92 711.74 -31.74 L 711.74 -31.74 L 711.74 -31.74 Q 715.65 -29.57 717.86 -25.66 L 717.86 -25.66 L 717.86 -25.66 Q 720.06 -21.76 720.06 -16.83 L 720.06 -16.83 L 720.06 -16.83 Q 720.06 -11.9 717.86 -8 L 717.86 -8 L 717.86 -8 Q 715.65 -4.1 711.74 -1.89 L 711.74 -1.89 L 711.74 -1.89 Q 707.84 0.32 702.98 0.32 L 702.98 0.32 Z M 702.98 -3.71 L 702.98 -3.71 Q 706.56 -3.71 709.41 -5.34 L 709.41 -5.34 L 709.41 -5.34 Q 712.26 -6.98 713.86 -9.98 L 713.86 -9.98 L 713.86 -9.98 Q 715.46 -12.99 715.46 -16.83 L 715.46 -16.83 L 715.46 -16.83 Q 715.46 -20.67 713.86 -23.68 L 713.86 -23.68 L 713.86 -23.68 Q 712.26 -26.69 709.41 -28.32 L 709.41 -28.32 L 709.41 -28.32 Q 706.56 -29.95 702.98 -29.95 L 702.98 -29.95 L 702.98 -29.95 Q 699.39 -29.95 696.54 -28.32 L 696.54 -28.32 L 696.54 -28.32 Q 693.7 -26.69 692.06 -23.68 L 692.06 -23.68 L 692.06 -23.68 Q 690.43 -20.67 690.43 -16.83 L 690.43 -16.83 L 690.43 -16.83 Q 690.43 -12.99 692.06 -9.98 L 692.06 -9.98 L 692.06 -9.98 Q 693.7 -6.98 696.54 -5.34 L 696.54 -5.34 L 696.54 -5.34 Q 699.39 -3.71 702.98 -3.71 L 702.98 -3.71 Z M 774.59 -33.66 L 778.75 -33.66 L 766.02 0 L 761.73 0 L 751.1 -27.58 L 740.48 0 L 736.19 0 L 723.52 -33.66 L 727.87 -33.66 L 738.43 -5.06 L 749.25 -33.66 L 753.15 -33.66 L 763.9 -5.06 L 774.59 -33.66 Z M 811.78 -47.49 L 816.32 -47.49 L 816.32 0 L 811.97 0 L 811.97 -6.66 L 811.97 -6.66 Q 809.92 -3.26 806.56 -1.47 L 806.56 -1.47 L 806.56 -1.47 Q 803.2 0.32 798.98 0.32 L 798.98 0.32 L 798.98 0.32 Q 794.24 0.32 790.4 -1.86 L 790.4 -1.86 L 790.4 -1.86 Q 786.56 -4.03 784.38 -7.94 L 784.38 -7.94 L 784.38 -7.94 Q 782.21 -11.84 782.21 -16.83 L 782.21 -16.83 L 782.21 -16.83 Q 782.21 -21.82 784.38 -25.73 L 784.38 -25.73 L 784.38 -25.73 Q 786.56 -29.63 790.4 -31.78 L 790.4 -31.78 L 790.4 -31.78 Q 794.24 -33.92 798.98 -33.92 L 798.98 -33.92 L 798.98 -33.92 Q 803.07 -33.92 806.37 -32.22 L 806.37 -32.22 L 806.37 -32.22 Q 809.66 -30.53 811.78 -27.26 L 811.78 -27.26 L 811.78 -47.49 Z M 799.36 -3.71 L 799.36 -3.71 Q 802.88 -3.71 805.73 -5.34 L 805.73 -5.34 L 805.73 -5.34 Q 808.58 -6.98 810.21 -9.98 L 810.21 -9.98 L 810.21 -9.98 Q 811.84 -12.99 811.84 -16.83 L 811.84 -16.83 L 811.84 -16.83 Q 811.84 -20.67 810.21 -23.68 L 810.21 -23.68 L 810.21 -23.68 Q 808.58 -26.69 805.73 -28.32 L 805.73 -28.32 L 805.73 -28.32 Q 802.88 -29.95 799.36 -29.95 L 799.36 -29.95 L 799.36 -29.95 Q 795.78 -29.95 792.93 -28.32 L 792.93 -28.32 L 792.93 -28.32 Q 790.08 -26.69 788.45 -23.68 L 788.45 -23.68 L 788.45 -23.68 Q 786.82 -20.67 786.82 -16.83 L 786.82 -16.83 L 786.82 -16.83 Q 786.82 -12.99 788.45 -9.98 L 788.45 -9.98 L 788.45 -9.98 Q 790.08 -6.98 792.93 -5.34 L 792.93 -5.34 L 792.93 -5.34 Q 795.78 -3.71 799.36 -3.71 L 799.36 -3.71 Z M 858.37 -16.83 L 858.3 -15.42 L 830.14 -15.42 L 830.14 -15.42 Q 830.53 -10.18 834.18 -6.94 L 834.18 -6.94 L 834.18 -6.94 Q 837.82 -3.71 843.39 -3.71 L 843.39 -3.71 L 843.39 -3.71 Q 846.53 -3.71 849.15 -4.83 L 849.15 -4.83 L 849.15 -4.83 Q 851.78 -5.95 853.7 -8.13 L 853.7 -8.13 L 856.26 -5.18 L 856.26 -5.18 Q 854.02 -2.5 850.66 -1.09 L 850.66 -1.09 L 850.66 -1.09 Q 847.3 0.32 843.26 0.32 L 843.26 0.32 L 843.26 0.32 Q 838.08 0.32 834.08 -1.89 L 834.08 -1.89 L 834.08 -1.89 Q 830.08 -4.1 827.84 -8 L 827.84 -8 L 827.84 -8 Q 825.6 -11.9 825.6 -16.83 L 825.6 -16.83 L 825.6 -16.83 Q 825.6 -21.76 827.74 -25.66 L 827.74 -25.66 L 827.74 -25.66 Q 829.89 -29.57 833.63 -31.74 L 833.63 -31.74 L 833.63 -31.74 Q 837.38 -33.92 842.05 -33.92 L 842.05 -33.92 L 842.05 -33.92 Q 846.72 -33.92 850.43 -31.74 L 850.43 -31.74 L 850.43 -31.74 Q 854.14 -29.57 856.26 -25.7 L 856.26 -25.7 L 856.26 -25.7 Q 858.37 -21.82 858.37 -16.83 L 858.37 -16.83 Z M 842.05 -30.02 L 842.05 -30.02 Q 837.18 -30.02 833.89 -26.91 L 833.89 -26.91 L 833.89 -26.91 Q 830.59 -23.81 830.14 -18.82 L 830.14 -18.82 L 854.02 -18.82 L 854.02 -18.82 Q 853.57 -23.81 850.27 -26.91 L 850.27 -26.91 L 850.27 -26.91 Q 846.98 -30.02 842.05 -30.02 L 842.05 -30.02 Z M 884.8 -33.92 L 884.8 -33.92 Q 891.14 -33.92 894.88 -30.24 L 894.88 -30.24 L 894.88 -30.24 Q 898.62 -26.56 898.62 -19.52 L 898.62 -19.52 L 898.62 0 L 894.08 0 L 894.08 -19.07 L 894.08 -19.07 Q 894.08 -24.32 891.46 -27.07 L 891.46 -27.07 L 891.46 -27.07 Q 888.83 -29.82 883.97 -29.82 L 883.97 -29.82 L 883.97 -29.82 Q 878.53 -29.82 875.36 -26.59 L 875.36 -26.59 L 875.36 -26.59 Q 872.19 -23.36 872.19 -17.66 L 872.19 -17.66 L 872.19 0 L 867.65 0 L 867.65 -33.66 L 872 -33.66 L 872 -27.46 L 872 -27.46 Q 873.86 -30.53 877.15 -32.22 L 877.15 -32.22 L 877.15 -32.22 Q 880.45 -33.92 884.8 -33.92 L 884.8 -33.92 Z M 911.42 0.32 L 911.42 0.32 Q 910.02 0.32 909.02 -0.7 L 909.02 -0.7 L 909.02 -0.7 Q 908.03 -1.73 908.03 -3.2 L 908.03 -3.2 L 908.03 -3.2 Q 908.03 -4.67 909.02 -5.66 L 909.02 -5.66 L 909.02 -5.66 Q 910.02 -6.66 911.42 -6.66 L 911.42 -6.66 L 911.42 -6.66 Q 912.83 -6.66 913.86 -5.66 L 913.86 -5.66 L 913.86 -5.66 Q 914.88 -4.67 914.88 -3.2 L 914.88 -3.2 L 914.88 -3.2 Q 914.88 -1.73 913.86 -0.7 L 913.86 -0.7 L 913.86 -0.7 Q 912.83 0.32 911.42 0.32 L 911.42 0.32 Z M 938.5 0.32 L 938.5 0.32 Q 933.5 0.32 929.57 -1.86 L 929.57 -1.86 L 929.57 -1.86 Q 925.63 -4.03 923.39 -7.97 L 923.39 -7.97 L 923.39 -7.97 Q 921.15 -11.9 921.15 -16.83 L 921.15 -16.83 L 921.15 -16.83 Q 921.15 -21.76 923.39 -25.66 L 923.39 -25.66 L 923.39 -25.66 Q 925.63 -29.57 929.57 -31.74 L 929.57 -31.74 L 929.57 -31.74 Q 933.5 -33.92 938.5 -33.92 L 938.5 -33.92 L 938.5 -33.92 Q 942.85 -33.92 946.27 -32.22 L 946.27 -32.22 L 946.27 -32.22 Q 949.7 -30.53 951.68 -27.26 L 951.68 -27.26 L 948.29 -24.96 L 948.29 -24.96 Q 946.62 -27.46 944.06 -28.7 L 944.06 -28.7 L 944.06 -28.7 Q 941.5 -29.95 938.5 -29.95 L 938.5 -29.95 L 938.5 -29.95 Q 934.85 -29.95 931.94 -28.32 L 931.94 -28.32 L 931.94 -28.32 Q 929.02 -26.69 927.39 -23.68 L 927.39 -23.68 L 927.39 -23.68 Q 925.76 -20.67 925.76 -16.83 L 925.76 -16.83 L 925.76 -16.83 Q 925.76 -12.93 927.39 -9.95 L 927.39 -9.95 L 927.39 -9.95 Q 929.02 -6.98 931.94 -5.34 L 931.94 -5.34 L 931.94 -5.34 Q 934.85 -3.71 938.5 -3.71 L 938.5 -3.71 L 938.5 -3.71 Q 941.5 -3.71 944.06 -4.93 L 944.06 -4.93 L 944.06 -4.93 Q 946.62 -6.14 948.29 -8.64 L 948.29 -8.64 L 951.68 -6.34 L 951.68 -6.34 Q 949.7 -3.07 946.24 -1.38 L 946.24 -1.38 L 946.24 -1.38 Q 942.78 0.32 938.5 0.32 L 938.5 0.32 Z M 974.34 0.32 L 974.34 0.32 Q 969.47 0.32 965.57 -1.89 L 965.57 -1.89 L 965.57 -1.89 Q 961.66 -4.1 959.42 -8 L 959.42 -8 L 959.42 -8 Q 957.18 -11.9 957.18 -16.83 L 957.18 -16.83 L 957.18 -16.83 Q 957.18 -21.76 959.42 -25.66 L 959.42 -25.66 L 959.42 -25.66 Q 961.66 -29.57 965.57 -31.74 L 965.57 -31.74 L 965.57 -31.74 Q 969.47 -33.92 974.34 -33.92 L 974.34 -33.92 L 974.34 -33.92 Q 979.2 -33.92 983.1 -31.74 L 983.1 -31.74 L 983.1 -31.74 Q 987.01 -29.57 989.22 -25.66 L 989.22 -25.66 L 989.22 -25.66 Q 991.42 -21.76 991.42 -16.83 L 991.42 -16.83 L 991.42 -16.83 Q 991.42 -11.9 989.22 -8 L 989.22 -8 L 989.22 -8 Q 987.01 -4.1 983.1 -1.89 L 983.1 -1.89 L 983.1 -1.89 Q 979.2 0.32 974.34 0.32 L 974.34 0.32 Z M 974.34 -3.71 L 974.34 -3.71 Q 977.92 -3.71 980.77 -5.34 L 980.77 -5.34 L 980.77 -5.34 Q 983.62 -6.98 985.22 -9.98 L 985.22 -9.98 L 985.22 -9.98 Q 986.82 -12.99 986.82 -16.83 L 986.82 -16.83 L 986.82 -16.83 Q 986.82 -20.67 985.22 -23.68 L 985.22 -23.68 L 985.22 -23.68 Q 983.62 -26.69 980.77 -28.32 L 980.77 -28.32 L 980.77 -28.32 Q 977.92 -29.95 974.34 -29.95 L 974.34 -29.95 L 974.34 -29.95 Q 970.75 -29.95 967.9 -28.32 L 967.9 -28.32 L 967.9 -28.32 Q 965.06 -26.69 963.42 -23.68 L 963.42 -23.68 L 963.42 -23.68 Q 961.79 -20.67 961.79 -16.83 L 961.79 -16.83 L 961.79 -16.83 Q 961.79 -12.99 963.42 -9.98 L 963.42 -9.98 L 963.42 -9.98 Q 965.06 -6.98 967.9 -5.34 L 967.9 -5.34 L 967.9 -5.34 Q 970.75 -3.71 974.34 -3.71 L 974.34 -3.71 Z M 1042.69 -33.92 L 1042.69 -33.92 Q 1049.02 -33.92 1052.64 -30.27 L 1052.64 -30.27 L 1052.64 -30.27 Q 1056.26 -26.62 1056.26 -19.52 L 1056.26 -19.52 L 1056.26 0 L 1051.71 0 L 1051.71 -19.07 L 1051.71 -19.07 Q 1051.71 -24.32 1049.18 -27.07 L 1049.18 -27.07 L 1049.18 -27.07 Q 1046.66 -29.82 1042.05 -29.82 L 1042.05 -29.82 L 1042.05 -29.82 Q 1036.8 -29.82 1033.79 -26.59 L 1033.79 -26.59 L 1033.79 -26.59 Q 1030.78 -23.36 1030.78 -17.66 L 1030.78 -17.66 L 1030.78 0 L 1026.24 0 L 1026.24 -19.07 L 1026.24 -19.07 Q 1026.24 -24.32 1023.71 -27.07 L 1023.71 -27.07 L 1023.71 -27.07 Q 1021.18 -29.82 1016.51 -29.82 L 1016.51 -29.82 L 1016.51 -29.82 Q 1011.33 -29.82 1008.29 -26.59 L 1008.29 -26.59 L 1008.29 -26.59 Q 1005.25 -23.36 1005.25 -17.66 L 1005.25 -17.66 L 1005.25 0 L 1000.7 0 L 1000.7 -33.66 L 1005.06 -33.66 L 1005.06 -27.52 L 1005.06 -27.52 Q 1006.85 -30.59 1010.05 -32.26 L 1010.05 -32.26 L 1010.05 -32.26 Q 1013.25 -33.92 1017.41 -33.92 L 1017.41 -33.92 L 1017.41 -33.92 Q 1021.63 -33.92 1024.74 -32.13 L 1024.74 -32.13 L 1024.74 -32.13 Q 1027.84 -30.34 1029.38 -26.82 L 1029.38 -26.82 L 1029.38 -26.82 Q 1031.23 -30.14 1034.72 -32.03 L 1034.72 -32.03 L 1034.72 -32.03 Q 1038.21 -33.92 1042.69 -33.92 L 1042.69 -33.92 Z" stroke-linecap="round" />
</g>
</svg>