<svg id="eUHbgWvphuA1" xmlns="http://www.w3.org/2000/svg" xmlns:xlink="http://www.w3.org/1999/xlink" viewBox="0 0 512 512" shape-rendering="geometricPrecision" text-rendering="geometricPrecision">
    <g id="eUHbgWvphuA2">
        <g id="eUHbgWvphuA3" transform="matrix(1 0 0 1 213.25899999999999 105.33499999999999)">
            <style>
                path { fill: #ffffff; }
                @media (prefers-color-scheme: light) {
                    path { fill: #000000; }
                }
            </style>
            <path id="eUHbgWvphuA4" d="M19.840000,-48.510000L19.840000,-45.630000L14.660000,-45.120000L14.660000,-16.450000L14.660000,-12.220000L14.660000,-12.220000Q14.660000,-4.800000,14.020000,-1.340000L14.020000,-1.340000L14.020000,-1.340000Q13.250000,2.430000,10.910000,5.310000L10.910000,5.310000L10.910000,5.310000Q8.580000,8.190000,5.380000,9.920000L5.380000,9.920000L5.380000,9.920000Q2.180000,11.650000,-1.220000,12.160000L-1.220000,12.160000L-2.690000,10.050000L-2.690000,10.050000Q1.020000,8.900000,3.680000,6.820000L3.680000,6.820000L3.680000,6.820000Q6.340000,4.740000,7.490000,1.860000L7.490000,1.860000L7.490000,1.860000Q8.380000,-0.700000,8.670000,-3.940000L8.670000,-3.940000L8.670000,-3.940000Q8.960000,-7.170000,8.960000,-12.540000L8.960000,-12.540000L8.960000,-45.120000L3.650000,-45.630000L3.650000,-48.510000L19.840000,-48.510000ZM25.920000,-2.560000L31.230000,-3.390000L31.230000,-45.120000L26.050000,-45.630000L26.050000,-48.510000L41.980000,-48.510000L41.980000,-45.630000L36.930000,-45.120000L36.930000,-25.280000L61.500000,-25.280000L61.500000,-45.120000L56.380000,-45.630000L56.380000,-48.510000L72.190000,-48.510000L72.190000,-45.630000L67.200000,-45.120000L67.200000,-3.390000L72.640000,-2.560000L72.640000,0L56.130000,0L56.130000,-2.560000L61.500000,-3.390000L61.500000,-21.820000L36.930000,-21.820000L36.930000,-3.390000L42.240000,-2.560000L42.240000,0L25.920000,0L25.920000,-2.560000Z" transform="matrix(6 0 0 6 -167.10900000153450 259.71500020530277)" fill="#ffffff" stroke="none" stroke-width="1" stroke-miterlimit="1"/>
        </g>
    </g>
</svg>