<?xml version="1.0" encoding="utf-8"?>
<svg viewBox="0 0 500 500" width="500" height="500" xmlns="http://www.w3.org/2000/svg">
  <style>
    path { fill: #ffffff; }
    @media (prefers-color-scheme: light) {
        path { fill: #222222; }
    }
  </style>
  <path d="M 23.022 495.165 C 18.929 495.165 15.222 494.878 11.902 494.305 C 8.575 493.732 5.122 492.868 1.542 491.715 L 4.042 462.965 C 5.829 463.605 8.862 464.178 13.142 464.685 C 17.422 465.198 20.715 465.455 23.022 465.455 C 30.562 465.455 36.535 462.165 40.942 455.585 C 45.349 448.998 47.552 439.955 47.552 428.455 L 47.552 233.685 L 16.312 228.325 L 16.312 203.975 L 85.322 203.975 L 85.322 428.455 C 85.322 449.802 79.825 466.255 68.832 477.815 C 57.845 489.382 42.575 495.165 23.022 495.165 Z M 85.322 152.795 L 45.642 152.795 L 45.642 112.345 L 85.322 112.345 L 85.322 152.795 ZM 222.572 411.395 L 122.312 411.395 L 122.312 387.245 L 153.562 381.875 L 153.562 142.055 L 122.312 136.695 L 122.312 112.345 L 191.322 112.345 L 191.322 231.585 C 198.482 221.612 207.239 213.878 217.592 208.385 C 227.946 202.892 239.446 200.145 252.092 200.145 C 274.332 200.145 291.586 206.788 303.852 220.075 C 316.126 233.368 322.262 253.818 322.262 281.425 L 322.262 381.875 L 353.502 387.245 L 353.502 411.395 L 253.242 411.395 L 253.242 387.245 L 284.492 381.875 L 284.492 281.035 C 284.492 263.915 280.819 251.265 273.472 243.085 C 266.126 234.905 255.166 230.815 240.592 230.815 C 230.239 230.815 220.816 233.275 212.322 238.195 C 203.822 243.115 196.822 249.792 191.322 258.225 L 191.322 381.875 L 222.572 387.245 L 222.572 411.395 ZM 430.563 411.395 L 392.803 411.395 L 392.803 372.675 L 430.563 372.675 L 430.563 411.395 Z" transform="matrix(1.1142170429229736, 0, 0, 0.9888050556182861, 0, -0.07725001126527786)"/>
</svg>